<?xml version="1.0" encoding="UTF-8" standalone="no"?>
<svg
   xmlns:dc="http://purl.org/dc/elements/1.1/"
   xmlns:cc="http://creativecommons.org/ns#"
   xmlns:rdf="http://www.w3.org/1999/02/22-rdf-syntax-ns#"
   xmlns:svg="http://www.w3.org/2000/svg"
   xmlns="http://www.w3.org/2000/svg"
   viewBox="0 0 163.976 119.14667"
   height="119.14667"
   width="163.976"
   xml:space="preserve"
   id="svg2"
   version="1.1"><metadata
     id="metadata8"><rdf:RDF><cc:Work
         rdf:about=""><dc:format>image/svg+xml</dc:format><dc:type
           rdf:resource="http://purl.org/dc/dcmitype/StillImage" /></cc:Work></rdf:RDF></metadata><defs
     id="defs6"><clipPath
       id="clipPath18"
       clipPathUnits="userSpaceOnUse"><path
         id="path16"
         d="M 0,89.36 H 122.982 V 0 H 0 Z" /></clipPath></defs><g
     transform="matrix(1.3333333,0,0,-1.3333333,0,119.14667)"
     id="g10"><g
       id="g12"><g
         clip-path="url(#clipPath18)"
         id="g14"><g
           transform="translate(97.1958,69.176)"
           id="g20"><path
             id="path22"
             style="fill:#ffba3d;fill-opacity:1;fill-rule:nonzero;stroke:none"
             d="m 0,0 c 2.849,-1.308 5.869,-2.734 5.917,-2.757 0.457,-0.216 0.939,-0.318 1.413,-0.318 1.24,0 2.429,0.701 2.994,1.897 C 11.106,0.475 10.4,2.448 8.746,3.23 8.622,3.287 7.425,3.854 5.853,4.587 4.563,2.4 2.483,0.736 0,0" /></g><g
           transform="translate(50.8238,69.451)"
           id="g24"><path
             id="path26"
             style="fill:#ffba3d;fill-opacity:1;fill-rule:nonzero;stroke:none"
             d="m 0,0 -1.436,-1.311 -1.893,1.783 c -0.392,0.065 -0.777,0.149 -1.153,0.258 -0.782,-0.354 -1.714,-0.839 -2.677,-1.407 0.07,0.414 0.067,0.834 -0.015,1.241 0.428,0.25 0.849,0.479 1.263,0.697 -2.209,1.01 -3.998,2.77 -5.05,4.955 -0.582,-0.354 -1.153,-0.716 -1.698,-1.084 -0.797,0.457 -1.564,0.892 -2.169,1.233 -1.018,-2.205 -2.784,-3.989 -4.975,-5.033 1.793,-0.932 6.154,-3.349 7.365,-4.203 0.265,-0.187 0.551,-0.314 0.844,-0.416 v -17.664 c 0,-1.518 0.244,-2.963 0.699,-4.28 -0.013,-0.141 -0.021,-0.283 -0.021,-0.426 v -3.967 h 0.026 c -0.002,-0.057 -0.017,-0.111 -0.017,-0.169 l 10e-4,-34.886 c 0,-2.377 1.928,-4.305 4.306,-4.305 2.378,0 4.305,1.928 4.305,4.305 l -10e-4,34.886 c 0,0.058 -0.015,0.112 -0.017,0.169 h 0.647 c -0.002,-0.057 -0.017,-0.111 -0.017,-0.168 l -0.002,-34.887 c 0,-2.377 1.927,-4.305 4.305,-4.305 2.377,0 4.306,1.928 4.306,4.305 l 0.002,34.887 c 0,0.059 -0.015,0.111 -0.017,0.169 h 0.05 l 0.003,4.509 c 0,0 0.762,1.02 0.762,4.718 0,1.987 0.202,9.395 0.202,9.395 L 7.949,-2.9 C 7.904,-2.879 1.787,0.474 1.787,0.474 Z" /></g><g
           transform="translate(28.5468,69.661)"
           id="g28"><path
             id="path30"
             style="fill:#ffba3d;fill-opacity:1;fill-rule:nonzero;stroke:none"
             d="m 0,0 -1.893,-1.451 -1.436,1.312 c -3.134,-1.429 -6.904,-3.21 -6.955,-3.234 -0.548,-0.259 -1.132,-0.391 -1.735,-0.391 -0.668,0 -1.311,0.176 -1.884,0.477 L -13.916,-3.3 c -3.626,2.909 -6.65,7.946 -7.71,10.114 -0.879,1.81 -3.059,2.564 -4.869,1.686 -1.809,-0.879 -2.564,-3.06 -1.685,-4.869 0.643,-1.323 6.533,-13.002 15.42,-15.784 0.513,-0.16 1.026,-0.279 1.541,-0.374 0.058,-2.24 0.165,-6.561 0.165,-8.01 0,-3.699 0.761,-4.719 0.761,-4.719 l 0.003,-4.508 h 0.066 c -0.002,-0.059 -0.018,-0.114 -0.018,-0.174 l 0.002,-34.885 c 0,-2.377 1.927,-4.306 4.306,-4.306 2.377,0 4.305,1.929 4.305,4.306 l -10e-4,34.887 c 0,0.059 -0.015,0.113 -0.018,0.172 H -1 c -0.002,-0.059 -0.018,-0.114 -0.018,-0.172 L -1.02,-64.823 c 0,-2.377 1.927,-4.306 4.305,-4.306 2.378,0 4.305,1.927 4.306,4.306 l 0.002,34.885 c 0,0.06 -0.015,0.115 -0.018,0.174 h 0.011 v 3.967 c 0,0.145 -0.009,0.285 -0.021,0.426 0.455,1.318 0.698,2.763 0.698,4.281 V -3.096 C 6.715,-3.22 2.053,0.164 1.481,0.424 1.107,0.315 0.392,0.066 0,0" /></g><g
           transform="translate(16.4108,67.056)"
           id="g32"><path
             id="path34"
             style="fill:#ffba3d;fill-opacity:1;fill-rule:nonzero;stroke:none"
             d="M 0,0 C 0.485,0 0.978,0.104 1.445,0.326 1.493,0.349 4.514,1.776 7.398,3.101 4.821,3.816 2.65,5.499 1.294,7.737 -0.204,7.037 -1.33,6.507 -1.449,6.449 -3.14,5.651 -3.863,3.631 -3.065,1.941 -2.485,0.716 -1.268,0 0,0" /></g><g
           transform="translate(49.3908,89.36)"
           id="g36"><path
             id="path38"
             style="fill:#ffba3d;fill-opacity:1;fill-rule:nonzero;stroke:none"
             d="m 0,0 c 5.183,0 9.384,-4.201 9.384,-9.384 0,-5.183 -4.201,-9.384 -9.384,-9.384 -5.183,0 -9.384,4.201 -9.384,9.384 C -9.384,-4.201 -5.183,0 0,0" /></g><g
           transform="translate(26.7598,89.36)"
           id="g40"><path
             id="path42"
             style="fill:#ffba3d;fill-opacity:1;fill-rule:nonzero;stroke:none"
             d="m 0,0 c 5.183,0 9.384,-4.201 9.384,-9.384 0,-5.183 -4.201,-9.384 -9.384,-9.384 -5.183,0 -9.384,4.201 -9.384,9.384 C -9.384,-4.201 -5.183,0 0,0" /></g><g
           transform="translate(73.8418,69.12)"
           id="g44"><path
             id="path46"
             style="fill:#ffba3d;fill-opacity:1;fill-rule:nonzero;stroke:none"
             d="M 0,0 -1.437,-1.311 -3.329,0.472 C -3.722,0.537 -4.106,0.621 -4.483,0.73 -5.264,0.375 -6.196,-0.109 -7.16,-0.677 c 0.07,0.414 0.066,0.833 -0.016,1.241 0.429,0.249 0.85,0.479 1.263,0.697 -2.209,1.01 -3.998,2.77 -5.05,4.955 -0.582,-0.354 -1.153,-0.716 -1.698,-1.085 -0.797,0.457 -1.565,0.892 -2.169,1.234 -1.018,-2.205 -2.784,-3.989 -4.975,-5.033 1.793,-0.932 6.154,-3.349 7.365,-4.203 0.265,-0.187 0.551,-0.314 0.844,-0.417 v -17.663 c 0,-1.518 0.244,-2.963 0.698,-4.281 -0.013,-0.14 -0.021,-0.281 -0.021,-0.426 v -3.967 h 0.027 c -0.002,-0.057 -0.017,-0.111 -0.017,-0.17 l 0.001,-34.885 c 0,-2.379 1.928,-4.305 4.306,-4.305 2.377,0 4.306,1.926 4.306,4.305 l -0.001,34.887 c 0,0.059 -0.016,0.111 -0.018,0.169 h 0.647 c -0.002,-0.058 -0.018,-0.11 -0.018,-0.168 l -0.002,-34.886 c 0,-2.379 1.927,-4.305 4.306,-4.307 2.377,0 4.306,1.928 4.306,4.305 l 0.002,34.886 c 0,0.058 -0.015,0.112 -0.017,0.17 h 0.05 l 0.003,4.509 c 0,0 0.762,1.02 0.762,4.718 0,1.987 0.202,9.396 0.202,9.396 l 0.021,8.1 C 7.902,-2.879 1.785,0.474 1.785,0.474 Z" /></g><g
           transform="translate(72.4078,89.03)"
           id="g48"><path
             id="path50"
             style="fill:#ffba3d;fill-opacity:1;fill-rule:nonzero;stroke:none"
             d="m 0,0 c 5.183,0 9.384,-4.201 9.384,-9.384 0,-5.183 -4.201,-9.384 -9.384,-9.384 -5.183,0 -9.384,4.201 -9.384,9.384 C -9.384,-4.201 -5.183,0 0,0" /></g><g
           transform="translate(95.2488,88.896)"
           id="g52"><path
             id="path54"
             style="fill:#ffba3d;fill-opacity:1;fill-rule:nonzero;stroke:none"
             d="m 0,0 c 5.183,0 9.384,-4.201 9.384,-9.384 0,-5.183 -4.201,-9.384 -9.384,-9.384 -5.183,0 -9.384,4.201 -9.384,9.384 C -9.384,-4.201 -5.183,0 0,0" /></g><g
           transform="translate(120.9328,78.431)"
           id="g56"><path
             id="path58"
             style="fill:#ffba3d;fill-opacity:1;fill-rule:nonzero;stroke:none"
             d="m 0,0 c -1.809,0.881 -3.987,0.129 -4.871,-1.677 -1.167,-2.388 -4.708,-8.244 -8.815,-10.919 -0.57,-0.299 -1.21,-0.472 -1.875,-0.472 -0.602,0 -1.187,0.131 -1.733,0.39 -0.051,0.024 -3.82,1.805 -6.955,3.233 l -1.437,-1.311 -1.892,1.783 c -0.393,0.065 -0.778,0.149 -1.154,0.258 -0.781,-0.355 -1.713,-0.838 -2.677,-1.407 0.07,0.414 0.067,0.834 -0.015,1.242 0.428,0.249 0.849,0.479 1.263,0.696 -2.209,1.01 -3.998,2.77 -5.05,4.956 -0.583,-0.354 -1.153,-0.716 -1.698,-1.085 -0.797,0.457 -1.565,0.892 -2.169,1.234 -1.018,-2.206 -2.784,-3.99 -4.975,-5.034 1.793,-0.933 6.153,-3.349 7.364,-4.203 0.266,-0.186 0.552,-0.314 0.845,-0.417 v -17.664 c 0,-1.517 0.243,-2.962 0.698,-4.279 -0.013,-0.142 -0.021,-0.283 -0.021,-0.427 v -3.967 h 0.025 c -0.002,-0.058 -0.017,-0.111 -0.017,-0.169 l 0.002,-34.887 c 0,-2.377 1.928,-4.305 4.306,-4.305 2.379,0 4.306,1.928 4.306,4.307 l -10e-4,34.886 c 0,0.058 -0.016,0.112 -0.018,0.168 h 0.647 c 0,-0.058 -0.016,-0.111 -0.016,-0.168 l -0.002,-34.886 c 0,-2.379 1.928,-4.306 4.306,-4.307 2.377,0 4.306,1.928 4.306,4.305 l 0.002,34.887 c 0,0.058 -0.015,0.111 -0.017,0.169 h 0.05 l 0.003,4.509 c 0,0 0.762,1.02 0.762,4.718 0,1.607 0.132,6.753 0.184,8.667 0.434,0.042 0.868,0.109 1.302,0.199 l 0.033,-0.014 c 0.004,0.008 0.01,0.015 0.014,0.023 0.419,0.087 0.837,0.188 1.255,0.319 8.887,2.782 14.778,14.461 15.42,15.784 C 2.559,-3.056 1.806,-0.88 0,0" /></g></g></g></g></svg>